<?xml version="1.0" encoding="utf-8"?>
<svg version="1.1" xmlns:xlink="http://www.w3.org/1999/xlink" width="20px" height="24px" xmlns="http://www.w3.org/2000/svg">
  <g transform="matrix(1 0 0 1 -1107 -138 )">
    <path d="M 4.23177083333333 9.70982142857143  C 6.01996527777778 10.09375  7.94270833333333 10.2857142857143  10 10.2857142857143  C 12.0572916666667 10.2857142857143  13.9800347222222 10.09375  15.7682291666667 9.70982142857143  C 17.5564236111111 9.32589285714285  18.9670138888889 8.75892857142857  20 8.00892857142857  L 20 10.2857142857143  C 20 10.9017857142857  19.5529513888889 11.4732142857143  18.6588541666667 12  C 17.7647569444444 12.5267857142857  16.5494791666667 12.9441964285714  15.0130208333333 13.2522321428571  C 13.4765625 13.5602678571429  11.8055555555556 13.7142857142857  10 13.7142857142857  C 8.19444444444444 13.7142857142857  6.5234375 13.5602678571429  4.98697916666667 13.2522321428571  C 3.45052083333333 12.9441964285714  2.23524305555556 12.5267857142857  1.34114583333333 12  C 0.447048611111111 11.4732142857143  0 10.9017857142857  0 10.2857142857143  L 0 8.00892857142857  C 1.03298611111111 8.75892857142857  2.44357638888889 9.32589285714285  4.23177083333333 9.70982142857143  Z M 4.23177083333333 19.9955357142857  C 6.01996527777778 20.3794642857143  7.94270833333333 20.5714285714286  10 20.5714285714286  C 12.0572916666667 20.5714285714286  13.9800347222222 20.3794642857143  15.7682291666667 19.9955357142857  C 17.5564236111111 19.6116071428571  18.9670138888889 19.0446428571429  20 18.2946428571429  L 20 20.5714285714286  C 20 21.1875  19.5529513888889 21.7589285714286  18.6588541666667 22.2857142857143  C 17.7647569444444 22.8125  16.5494791666667 23.2299107142857  15.0130208333333 23.5379464285714  C 13.4765625 23.8459821428571  11.8055555555556 24  10 24  C 8.19444444444444 24  6.5234375 23.8459821428571  4.98697916666667 23.5379464285714  C 3.45052083333333 23.2299107142857  2.23524305555556 22.8125  1.34114583333333 22.2857142857143  C 0.447048611111111 21.7589285714286  0 21.1875  0 20.5714285714286  L 0 18.2946428571429  C 1.03298611111111 19.0446428571429  2.44357638888889 19.6116071428571  4.23177083333333 19.9955357142857  Z M 4.23177083333333 14.8526785714286  C 6.01996527777778 15.2366071428571  7.94270833333333 15.4285714285714  10 15.4285714285714  C 12.0572916666667 15.4285714285714  13.9800347222222 15.2366071428571  15.7682291666667 14.8526785714286  C 17.5564236111111 14.46875  18.9670138888889 13.9017857142857  20 13.1517857142857  L 20 15.4285714285714  C 20 16.0446428571429  19.5529513888889 16.6160714285714  18.6588541666667 17.1428571428571  C 17.7647569444444 17.6696428571429  16.5494791666667 18.0870535714286  15.0130208333333 18.3950892857143  C 13.4765625 18.703125  11.8055555555556 18.8571428571429  10 18.8571428571429  C 8.19444444444444 18.8571428571429  6.5234375 18.703125  4.98697916666667 18.3950892857143  C 3.45052083333333 18.0870535714286  2.23524305555556 17.6696428571429  1.34114583333333 17.1428571428571  C 0.447048611111111 16.6160714285714  0 16.0446428571429  0 15.4285714285714  L 0 13.1517857142857  C 1.03298611111111 13.9017857142857  2.44357638888889 14.46875  4.23177083333333 14.8526785714286  Z M 4.98697916666667 0.46205357142857  C 6.5234375 0.154017857142857  8.19444444444444 0  10 0  C 11.8055555555556 0  13.4765625 0.154017857142857  15.0130208333333 0.46205357142857  C 16.5494791666667 0.770089285714286  17.7647569444444 1.1875  18.6588541666667 1.71428571428571  C 19.5529513888889 2.24107142857143  20 2.8125  20 3.42857142857143  L 20 5.14285714285714  C 20 5.75892857142857  19.5529513888889 6.33035714285714  18.6588541666667 6.85714285714286  C 17.7647569444444 7.38392857142857  16.5494791666667 7.80133928571429  15.0130208333333 8.109375  C 13.4765625 8.41741071428571  11.8055555555556 8.57142857142857  10 8.57142857142857  C 8.19444444444444 8.57142857142857  6.5234375 8.41741071428571  4.98697916666667 8.109375  C 3.45052083333333 7.80133928571429  2.23524305555556 7.38392857142857  1.34114583333333 6.85714285714286  C 0.447048611111111 6.33035714285714  0 5.75892857142857  0 5.14285714285714  L 0 3.42857142857143  C 0 2.8125  0.447048611111111 2.24107142857143  1.34114583333333 1.71428571428571  C 2.23524305555556 1.1875  3.45052083333333 0.770089285714286  4.98697916666667 0.46205357142857  Z " fill-rule="nonzero" fill="#d9d9d9" stroke="none" transform="matrix(1 0 0 1 1107 138 )" />
  </g>
</svg>