<?xml version="1.0" encoding="utf-8"?>
<svg version="1.1" xmlns:xlink="http://www.w3.org/1999/xlink" width="24px" height="22px" xmlns="http://www.w3.org/2000/svg">
  <g transform="matrix(1 0 0 1 -1211 -200 )">
    <path d="M 6.4 7.85714285714286  C 6.4 8.99479166666667  6.7375 10.0424107142857  7.4125 11  C 6.0625 11.0409226190476  4.95833333333333 11.5647321428571  4.1 12.5714285714286  L 2.425 12.5714285714286  C 1.74166666666667 12.5714285714286  1.16666666666667 12.4056919642857  0.7 12.07421875  C 0.233333333333333 11.7427455357143  0 11.2578125  0 10.6194196428571  C 0 7.73028273809524  0.516666666666667 6.28571428571429  1.55 6.28571428571429  C 1.6 6.28571428571429  1.78125 6.37165178571429  2.09375 6.54352678571429  C 2.40625 6.71540178571429  2.8125 6.88932291666667  3.3125 7.06529017857143  C 3.8125 7.24125744047619  4.30833333333333 7.32924107142857  4.8 7.32924107142857  C 5.35833333333333 7.32924107142857  5.9125 7.23511904761905  6.4625 7.046875  C 6.42083333333333 7.34970238095238  6.4 7.61979166666667  6.4 7.85714285714286  Z M 20.75625 17.5496651785714  C 20.7854166666667 17.9629836309524  20.8 18.3865327380952  20.8 18.8203125  C 20.8 19.8024553571429  20.4958333333333 20.5779389880952  19.8875 21.1467633928571  C 19.2791666666667 21.715587797619  18.4708333333333 22  17.4625 22  L 6.5375 22  C 5.52916666666667 22  4.72083333333334 21.715587797619  4.1125 21.1467633928571  C 3.50416666666667 20.5779389880952  3.2 19.8024553571429  3.2 18.8203125  C 3.2 18.3865327380952  3.21458333333333 17.9629836309524  3.24375 17.5496651785714  C 3.27291666666667 17.1363467261905  3.33125 16.6902901785714  3.41875 16.2114955357143  C 3.50625 15.7327008928571  3.61666666666667 15.2886904761905  3.75 14.8794642857143  C 3.88333333333333 14.4702380952381  4.0625 14.0712425595238  4.2875 13.6824776785714  C 4.5125 13.293712797619  4.77083333333333 12.9622395833333  5.0625 12.6880580357143  C 5.35416666666667 12.4138764880952  5.71041666666667 12.1949404761905  6.13125 12.03125  C 6.55208333333333 11.8675595238095  7.01666666666667 11.7857142857143  7.525 11.7857142857143  C 7.60833333333333 11.7857142857143  7.7875 11.8736979166667  8.0625 12.0496651785714  C 8.3375 12.2256324404762  8.64166666666667 12.4220610119048  8.975 12.6389508928571  C 9.30833333333334 12.8558407738095  9.75416666666667 13.0522693452381  10.3125 13.2282366071429  C 10.8708333333333 13.4042038690476  11.4333333333333 13.4921875  12 13.4921875  C 12.5666666666667 13.4921875  13.1291666666667 13.4042038690476  13.6875 13.2282366071429  C 14.2458333333333 13.0522693452381  14.6916666666667 12.8558407738095  15.025 12.6389508928571  C 15.3583333333333 12.4220610119048  15.6625 12.2256324404762  15.9375 12.0496651785714  C 16.2125 11.8736979166667  16.3916666666667 11.7857142857143  16.475 11.7857142857143  C 16.9833333333333 11.7857142857143  17.4479166666667 11.8675595238095  17.86875 12.03125  C 18.2895833333333 12.1949404761905  18.6458333333333 12.4138764880952  18.9375 12.6880580357143  C 19.2291666666667 12.9622395833333  19.4875 13.293712797619  19.7125 13.6824776785714  C 19.9375 14.0712425595238  20.1166666666667 14.4702380952381  20.25 14.8794642857143  C 20.3833333333333 15.2886904761905  20.49375 15.7327008928571  20.58125 16.2114955357143  C 20.66875 16.6902901785714  20.7270833333333 17.1363467261905  20.75625 17.5496651785714  Z M 7.0625 0.920758928571429  C 7.6875 1.53459821428571  8 2.27529761904762  8 3.14285714285714  C 8 4.01041666666667  7.6875 4.75111607142857  7.0625 5.36495535714286  C 6.4375 5.97879464285714  5.68333333333333 6.28571428571429  4.8 6.28571428571429  C 3.91666666666667 6.28571428571429  3.1625 5.97879464285714  2.5375 5.36495535714286  C 1.9125 4.75111607142857  1.6 4.01041666666667  1.6 3.14285714285714  C 1.6 2.27529761904762  1.9125 1.53459821428571  2.5375 0.920758928571429  C 3.1625 0.306919642857144  3.91666666666667 0  4.8 0  C 5.68333333333333 0  6.4375 0.306919642857144  7.0625 0.920758928571429  Z M 15.39375 4.52399553571429  C 16.33125 5.44475446428571  16.8 6.55580357142857  16.8 7.85714285714286  C 16.8 9.15848214285714  16.33125 10.26953125  15.39375 11.1902901785714  C 14.45625 12.1110491071429  13.325 12.5714285714286  12 12.5714285714286  C 10.675 12.5714285714286  9.54375 12.1110491071429  8.60625 11.1902901785714  C 7.66875 10.26953125  7.2 9.15848214285714  7.2 7.85714285714286  C 7.2 6.55580357142857  7.66875 5.44475446428571  8.60625 4.52399553571429  C 9.54375 3.60323660714286  10.675 3.14285714285714  12 3.14285714285714  C 13.325 3.14285714285714  14.45625 3.60323660714286  15.39375 4.52399553571429  Z M 22.45 6.28571428571429  C 23.4833333333333 6.28571428571429  24 7.73028273809524  24 10.6194196428571  C 24 11.2578125  23.7666666666667 11.7427455357143  23.3 12.07421875  C 22.8333333333333 12.4056919642857  22.2583333333333 12.5714285714286  21.575 12.5714285714286  L 19.9 12.5714285714286  C 19.0416666666667 11.5647321428571  17.9375 11.0409226190476  16.5875 11  C 17.2625 10.0424107142857  17.6 8.99479166666667  17.6 7.85714285714286  C 17.6 7.61979166666667  17.5791666666667 7.34970238095238  17.5375 7.046875  C 18.0875 7.23511904761905  18.6416666666667 7.32924107142857  19.2 7.32924107142857  C 19.6916666666667 7.32924107142857  20.1875 7.24125744047619  20.6875 7.06529017857143  C 21.1875 6.88932291666667  21.59375 6.71540178571429  21.90625 6.54352678571429  C 22.21875 6.37165178571429  22.4 6.28571428571429  22.45 6.28571428571429  Z M 21.4625 0.920758928571429  C 22.0875 1.53459821428571  22.4 2.27529761904762  22.4 3.14285714285714  C 22.4 4.01041666666667  22.0875 4.75111607142857  21.4625 5.36495535714286  C 20.8375 5.97879464285714  20.0833333333333 6.28571428571429  19.2 6.28571428571429  C 18.3166666666667 6.28571428571429  17.5625 5.97879464285714  16.9375 5.36495535714286  C 16.3125 4.75111607142857  16 4.01041666666667  16 3.14285714285714  C 16 2.27529761904762  16.3125 1.53459821428571  16.9375 0.920758928571429  C 17.5625 0.306919642857144  18.3166666666667 0  19.2 0  C 20.0833333333333 0  20.8375 0.306919642857144  21.4625 0.920758928571429  Z " fill-rule="nonzero" fill="#999999" stroke="none" transform="matrix(1 0 0 1 1211 200 )" />
  </g>
</svg>