<?xml version="1.0" encoding="utf-8"?>
<svg version="1.1" xmlns:xlink="http://www.w3.org/1999/xlink" width="24px" height="24px" xmlns="http://www.w3.org/2000/svg">
  <g transform="matrix(1 0 0 1 -1211 -138 )">
    <path d="M 5.66884272997033 13.8160237388724  L 13.8160237388724 5.66884272997033  L 18.3169139465875 10.1697329376855  L 10.1697329376855 18.3169139465875  L 5.66884272997033 13.8160237388724  Z M 10.1697329376855 19.8694362017804  C 10.4261127596439 19.8694362017804  10.639762611276 19.7839762611276  10.8106824925816 19.613056379822  L 19.613056379822 10.8106824925816  C 19.793471810089 10.6302670623145  19.8836795252226 10.4166172106825  19.8836795252226 10.1697329376855  C 19.8836795252226 9.92284866468843  19.793471810089 9.70919881305638  19.613056379822 9.52878338278932  L 14.4569732937685 4.37270029673591  C 14.2860534124629 4.20178041543027  14.0724035608309 4.11632047477745  13.8160237388724 4.11632047477745  C 13.5596439169139 4.11632047477745  13.3459940652819 4.20178041543027  13.1750741839763 4.37270029673591  L 4.37270029673591 13.1750741839763  C 4.19228486646884 13.3554896142433  4.10207715133531 13.5691394658754  4.10207715133531 13.8160237388724  C 4.10207715133531 14.0629080118694  4.19228486646884 14.2765578635015  4.37270029673591 14.4569732937685  L 9.52878338278932 19.613056379822  C 9.69970326409496 19.7839762611276  9.913353115727 19.8694362017804  10.1697329376855 19.8694362017804  Z M 24 9.25103857566766  C 24 9.75905044510386  23.8243323442137 10.1887240356083  23.4729970326409 10.540059347181  L 10.5543026706231 23.4729970326409  C 10.2029673590504 23.8243323442137  9.77329376854599 24  9.26528189910979 24  C 8.75727002967359 24  8.32759643916914 23.8243323442137  7.97626112759644 23.4729970326409  L 6.18160237388724 21.6783382789318  C 6.713353115727 21.146587537092  6.97922848664688 20.5008902077151  6.97922848664688 19.7412462908012  C 6.97922848664688 18.9816023738872  6.713353115727 18.3359050445104  6.18160237388724 17.8041543026706  C 5.64985163204748 17.2724035608309  5.00415430267062 17.006528189911  4.24451038575668 17.006528189911  C 3.48486646884273 17.006528189911  2.83916913946588 17.2724035608309  2.30741839762611 17.8041543026706  L 0.527002967359051 16.0094955489614  C 0.17566765578635 15.6581602373887  0 15.2284866468843  0 14.7204747774481  C 0 14.2124629080119  0.17566765578635 13.7827893175074  0.527002967359051 13.4314540059347  L 13.4456973293769 0.527002967359051  C 13.7970326409496 0.175667655786349  14.226706231454 0  14.7347181008902 0  C 15.2427299703264 0  15.6724035608309 0.175667655786349  16.0237388724036 0.527002967359051  L 17.8041543026706 2.30741839762611  C 17.2724035608309 2.83916913946587  17.006528189911 3.48486646884273  17.006528189911 4.24451038575668  C 17.006528189911 5.00415430267062  17.2724035608309 5.64985163204747  17.8041543026706 6.18160237388724  C 18.3359050445104 6.713353115727  18.9816023738872 6.97922848664689  19.7412462908012 6.97922848664689  C 20.5008902077151 6.97922848664689  21.146587537092 6.713353115727  21.6783382789318 6.18160237388724  L 23.4729970326409 7.9620178041543  C 23.8243323442137 8.313353115727  24 8.74302670623145  24 9.25103857566766  Z " fill-rule="nonzero" fill="#999999" stroke="none" transform="matrix(1 0 0 1 1211 138 )" />
  </g>
</svg>