<?xml version="1.0" encoding="utf-8"?>
<svg version="1.1" xmlns:xlink="http://www.w3.org/1999/xlink" width="50px" height="34px" xmlns="http://www.w3.org/2000/svg">
  <g transform="matrix(1 0 0 1 -1429 -154 )">
    <path d="M 25 18.5454545454545  L 25 9.27272727272727  L 15.625 9.27272727272727  L 15.625 18.5454545454545  L 25 18.5454545454545  Z M 12.5 24.7272727272727  L 28.125 24.7272727272727  L 28.125 27.8181818181818  L 12.5 27.8181818181818  L 12.5 24.7272727272727  Z M 13 6.18181818181818  L 28 6.18181818181818  L 28 21  L 13 21  L 13 6.18181818181818  Z M 31.25 24.7272727272727  L 43.75 24.7272727272727  L 43.75 27.8181818181818  L 31.25 27.8181818181818  L 31.25 24.7272727272727  Z M 31.25 18  L 43.75 18  L 43.75 21  L 31.25 21  L 31.25 18  Z M 31.25 13  L 43.75 13  L 43.75 16  L 31.25 16  L 31.25 13  Z M 31.25 6.18181818181818  L 43.75 6.18181818181818  L 43.75 9.27272727272727  L 31.25 9.27272727272727  L 31.25 6.18181818181818  Z M 5.7861328125 30.4502840909091  C 6.09537760416667 30.1444128787879  6.25 29.782196969697  7 29.3636363636364  L 7 6.18181818181818  L 4 6.18181818181818  L 4 29.3636363636364  C 3.125 29.782196969697  3.27962239583333 30.1444128787879  3.5888671875 30.4502840909091  C 3.89811197916667 30.7561553030303  4.26432291666667 30.9090909090909  4.6875 30.9090909090909  C 5.11067708333333 30.9090909090909  5.47688802083333 30.7561553030303  5.7861328125 30.4502840909091  Z M 46.4111328125 30.4502840909091  C 46.7203776041667 30.1444128787879  46.875 29.782196969697  46 29.3636363636364  L 46 3  L 10 3  L 10 29.3636363636364  C 9.375 29.8948863636364  9.28548177083333 30.4100378787879  9.1064453125 31  L 45.3125 31  C 45.7356770833333 30.9090909090909  46.1018880208333 30.7561553030303  46.4111328125 30.4502840909091  Z M 6.25 0  L 50 0  L 50 29.3636363636364  C 50 30.6515151515152  49.5442708333333 31.7462121212121  48.6328125 32.6477272727273  C 47.7213541666667 33.5492424242424  46.6145833333333 34  45.3125 34  L 4.6875 34  C 3.38541666666667 34  2.27864583333333 33.5492424242424  1.3671875 32.6477272727273  C 0.455729166666667 31.7462121212121  0 30.6515151515152  0 29.3636363636364  L 0 3.09090909090909  L 6.25 3.09090909090909  L 6.25 0  Z " fill-rule="nonzero" fill="#000000" stroke="none" transform="matrix(1 0 0 1 1429 154 )" />
  </g>
</svg>