<?xml version="1.0" encoding="utf-8"?>
<svg version="1.1" xmlns:xlink="http://www.w3.org/1999/xlink" width="54px" height="88px" xmlns="http://www.w3.org/2000/svg">
  <g transform="matrix(1 0 0 1 -535 -1233 )">
    <path d="M 51.046875 26.8  C 53.015625 28.6666666666667  54 30.9333333333333  54 33.6  L 54 54.4  C 54 55.7333333333333  53.5078125 56.8666666666667  52.5234375 57.8  C 51.5390625 58.7333333333333  50.34375 59.2  48.9375 59.2  C 47.53125 59.2  46.3359375 58.7333333333333  45.3515625 57.8  C 44.3671875 56.8666666666667  43.875 55.7333333333333  43 54.4  L 43 36.8  L 40 36.8  L 40 82.4  C 40.5 83.9333333333333  39.919921875 85.25  38.759765625 86.35  C 37.599609375 87.45  36.2109375 88  34.59375 88  C 32.9765625 88  31.587890625 87.45  30.427734375 86.35  C 29.267578125 85.25  28.6875 83.9333333333333  28 82.4  L 28 59.2  L 26 59.2  L 26 82.4  C 25.3125 83.9333333333333  24.732421875 85.25  23.572265625 86.35  C 22.412109375 87.45  21.0234375 88  19.40625 88  C 17.7890625 88  16.400390625 87.45  15.240234375 86.35  C 14.080078125 85.25  13.5 83.9333333333333  14 82.4  L 14 36.8  L 11 36.8  L 11 54.4  C 10.125 55.7333333333333  9.6328125 56.8666666666667  8.6484375 57.8  C 7.6640625 58.7333333333333  6.46875 59.2  5.0625 59.2  C 3.65625 59.2  2.4609375 58.7333333333333  1.4765625 57.8  C 0.4921875 56.8666666666667  0 55.7333333333333  0 54.4  L 0 33.6  C 0 30.9333333333333  0.984375 28.6666666666667  2.953125 26.8  C 4.921875 24.9333333333333  7.3125 24  10.125 24  L 43.875 24  C 46.6875 24  49.078125 24.9333333333333  51.046875 26.8  Z M 35.3583984375 3.275  C 37.6611328125 5.45833333333332  38.8125 8.1  38.8125 11.2  C 38.8125 14.3  37.6611328125 16.9416666666667  35.3583984375 19.125  C 33.0556640625 21.3083333333333  30.26953125 22.4  27 22.4  C 23.73046875 22.4  20.9443359375 21.3083333333333  18.6416015625 19.125  C 16.3388671875 16.9416666666667  15.1875 14.3  15.1875 11.2  C 15.1875 8.1  16.3388671875 5.45833333333332  18.6416015625 3.275  C 20.9443359375 1.09166666666666  23.73046875 0  27 0  C 30.26953125 0  33.0556640625 1.09166666666666  35.3583984375 3.275  Z " fill-rule="nonzero" fill="#36cbcb" stroke="none" transform="matrix(1 0 0 1 535 1233 )" />
  </g>
</svg>