<?xml version="1.0" encoding="utf-8"?>
<svg version="1.1" xmlns:xlink="http://www.w3.org/1999/xlink" width="50px" height="50px" xmlns="http://www.w3.org/2000/svg">
  <g transform="matrix(1 0 0 1 -1125 -146 )">
    <path d="M 1.00334448160535 39  L 48.9966555183946 39  L 49.9721293199554 48.0189732142857  C 50.0278706800446 48.5398065476191  49.8792270531401 49.0048363095238  49.5261984392419 49.4140625  C 49.1731698253437 49.8046875  48.7272389446303 50  48.1884057971014 50  L 1.81159420289855 50  C 1.27276105536975 50  0.826830174656262 49.8046875  0.473801560758083 49.4140625  C 0.120772946859903 49.0048363095238  -0.0278706800445931 48.5398065476191  0.0278706800445931 48.0189732142857  L 1.00334448160535 39  Z M 45.819397993311 14.74609375  C 46.1538461538462 15.0530133928571  46.3489409141583 15.4296875  46.4046822742475 15.8761160714286  L 48.8015607580825 37  L 1.1984392419175 37  L 3.59531772575251 15.8761160714286  C 3.65105908584169 15.4296875  3.84615384615385 15.0530133928571  4.18060200668896 14.74609375  C 4.51505016722408 14.4391741071429  4.91452991452991 14.2857142857143  5.37904124860647 14.2857142857143  L 12.5139353400223 14.2857142857143  L 12.5139353400223 17.8571428571429  C 12.5139353400223 18.8430059523809  12.8623188405797 19.6847098214286  13.5590858416945 20.3822544642857  C 14.2558528428094 21.0797991071429  15.0966183574879 21.4285714285714  16.0813823857302 21.4285714285714  C 17.0661464139725 21.4285714285714  17.9069119286511 21.0797991071429  18.6036789297659 20.3822544642857  C 19.3004459308807 19.6847098214286  19.6488294314381 18.8430059523809  19.6488294314381 17.8571428571429  L 19.6488294314381 15  L 30.3511705685619 15  L 30.3511705685619 17.8571428571429  C 30.3511705685619 18.8430059523809  30.6995540691193 19.6847098214286  31.3963210702341 20.3822544642857  C 32.0930880713489 21.0797991071429  32.9338535860275 21.4285714285714  33.9186176142698 21.4285714285714  C 34.9033816425121 21.4285714285714  35.7441471571906 21.0797991071429  36.4409141583055 20.3822544642857  C 37.1376811594203 19.6847098214286  37.4860646599777 18.8430059523809  37.4860646599777 17.8571428571429  L 37.4860646599777 14.2857142857143  L 44.6209587513935 14.2857142857143  C 45.0854700854701 14.2857142857143  45.4849498327759 14.4391741071429  45.819397993311 14.74609375  Z M 32.566889632107 3.13895089285715  C 34.6571906354515 5.23158482142857  35.7023411371237 7.75669642857143  35.7023411371237 10.7142857142857  L 35.7023411371237 17.8571428571429  C 35.7023411371237 18.3407738095238  35.5258268301747 18.7593005952381  35.1727982162765 19.1127232142857  C 34.8197696023783 19.4661458333333  34.4017094017094 19.6428571428571  33.9186176142698 19.6428571428571  C 33.4355258268302 19.6428571428571  33.0174656261613 19.4661458333333  32.6644370122631 19.1127232142857  C 32.3114083983649 18.7593005952381  32.1348940914158 18.3407738095238  32.1348940914158 17.8571428571429  L 32.1348940914158 10.7142857142857  C 32.1348940914158 8.74255952380952  31.438127090301 7.05915178571428  30.0445930880713 5.6640625  C 28.6510590858417 4.26897321428572  26.9695280564846 3.57142857142857  25 3.57142857142857  C 23.0304719435154 3.57142857142857  21.3489409141583 4.26897321428572  19.9554069119286 5.6640625  C 18.561872909699 7.05915178571428  17.8651059085842 8.74255952380952  17.8651059085842 10.7142857142857  L 17.8651059085842 17.8571428571429  C 17.8651059085842 18.3407738095238  17.6885916016351 18.7593005952381  17.3355629877369 19.1127232142857  C 16.9825343738387 19.4661458333333  16.5644741731698 19.6428571428571  16.0813823857302 19.6428571428571  C 15.5982905982906 19.6428571428571  15.1802303976217 19.4661458333333  14.8272017837235 19.1127232142857  C 14.4741731698253 18.7593005952381  14.2976588628763 18.3407738095238  14.2976588628763 17.8571428571429  L 14.2976588628763 10.7142857142857  C 14.2976588628763 7.75669642857143  15.3428093645485 5.23158482142857  17.433110367893 3.13895089285715  C 19.5234113712375 1.04631696428572  22.0457079152731 0  25 0  C 27.9542920847269 0  30.4765886287625 1.04631696428572  32.566889632107 3.13895089285715  Z " fill-rule="nonzero" fill="#000000" stroke="none" transform="matrix(1 0 0 1 1125 146 )" />
  </g>
</svg>