<?xml version="1.0" encoding="utf-8"?>
<svg version="1.1" xmlns:xlink="http://www.w3.org/1999/xlink" width="67px" height="88px" xmlns="http://www.w3.org/2000/svg">
  <g transform="matrix(1 0 0 1 -698 -1233 )">
    <path d="M 66.1625 48.55  C 66.7208333333333 49.35  67 50.2333333333333  67 51.2  C 67 52.5333333333333  66.5114583333333 53.6666666666667  65.534375 54.6  C 64.5572916666667 55.5333333333333  63.3708333333333 56  61.975 56  C 60.1953125 56  58.7994791666667 55.2833333333333  57.7875 53.85  L 45.90546875 36.8  L 43.55 36.8  L 43.55 43.4  L 56.47890625 63.95  C 56.79296875 64.45  56.95 65  56.95 65.6  C 56.95 66.4666666666667  56.6184895833333 67.2166666666667  55.95546875 67.85  C 55.2924479166667 68.4833333333333  54.5072916666667 68.8  53.6 68  L 43 68  L 43 82.4  C 43.55 83.9333333333333  42.97421875 85.25  41.82265625 86.35  C 40.67109375 87.45  39.2927083333333 88  37.6875 88  L 29.3125 88  C 27.7072916666667 88  26.32890625 87.45  25.17734375 86.35  C 24.02578125 85.25  23.45 83.9333333333333  24 82.4  L 24 68  L 13.4 68  C 12.4927083333333 68.8  11.7075520833333 68.4833333333333  11.04453125 67.85  C 10.3815104166667 67.2166666666667  10.05 66.4666666666667  10.05 65.6  C 10.05 65  10.20703125 64.45  10.52109375 63.95  L 23.45 43.4  L 23.45 36.8  L 21.09453125 36.8  L 9.2125 53.85  C 8.20052083333333 55.2833333333333  6.8046875 56  5.025 56  C 3.62916666666667 56  2.44270833333333 55.5333333333333  1.465625 54.6  C 0.488541666666667 53.6666666666667  0 52.5333333333333  0 51.2  C 0 50.2333333333333  0.279166666666667 49.35  0.8375 48.55  L 14.2375 29.35  C 16.7848958333333 25.7833333333333  19.8557291666667 24  23.45 24  L 43.55 24  C 47.1442708333333 24  50.2151041666667 25.7833333333333  52.7625 29.35  L 66.1625 48.55  Z M 41.796484375 3.275  C 44.0821614583333 5.45833333333332  45.225 8.1  45.225 11.2  C 45.225 14.3  44.0821614583333 16.9416666666667  41.796484375 19.125  C 39.5108072916667 21.3083333333333  36.7453125 22.4  33.5 22.4  C 30.2546875 22.4  27.4891927083333 21.3083333333333  25.203515625 19.125  C 22.9178385416667 16.9416666666667  21.775 14.3  21.775 11.2  C 21.775 8.1  22.9178385416667 5.45833333333332  25.203515625 3.275  C 27.4891927083333 1.09166666666666  30.2546875 0  33.5 0  C 36.7453125 0  39.5108072916667 1.09166666666666  41.796484375 3.275  Z " fill-rule="nonzero" fill="#36cbcb" stroke="none" transform="matrix(1 0 0 1 698 1233 )" />
  </g>
</svg>