<?xml version="1.0" encoding="utf-8"?>
<svg version="1.1" xmlns:xlink="http://www.w3.org/1999/xlink" width="50px" height="50px" xmlns="http://www.w3.org/2000/svg">
  <g transform="matrix(1 0 0 1 -842 -146 )">
    <path d="M 48.2152816508645 0  C 48.587097973601 0  48.921732664064 0.102306547619052  49.2191857222532 0.306919642857145  C 49.8326826547686 0.753348214285715  50.0836586726157 1.34858630952381  49.9721137757948 2.09263392857143  L 42.8332403792527 44.9497767857143  C 42.7402862985685 45.4892113095238  42.4428332403793 45.9077380952381  41.9408812046849 46.2053571428571  C 41.6806097787693 46.3541666666667  41.3924521286485 46.4285714285714  41.0764082543224 46.4285714285714  C 40.8719092768173 46.4285714285714  40.6488194831753 46.3820684523809  40.4071388733965 46.2890625  L 27.7746793084216 41.1272321428571  L 21.0262130507529 49.3582589285714  C 20.69157836029 49.7860863095238  20.2361033649377 50  19.659788064696 50  C 19.4181074549173 50  19.2136084774122 49.9627976190476  19.0462911321807 49.8883928571429  C 18.693065625581 49.7581845238095  18.4095556794943 49.5396205357143  18.1957612939208 49.2327008928571  C 17.9819669083473 48.92578125  17.8750697155605 48.5863095238095  17.8750697155605 48.2142857142857  L 17.8750697155605 38.4765625  L 41.9687674288901 8.92857142857143  L 12.1583937534858 34.7377232142857  L 1.14333519241495 30.2176339285714  C 0.455474995352296 29.9572172619048  0.0836586726157278 29.4456845238095  0.0278862242052426 28.6830357142857  C -0.00929540806841421 27.9389880952381  0.28815765012084 27.3902529761905  0.920245398773006 27.0368303571429  L 47.3229224762967 0.25111607142857  C 47.6017847183491 0.0837053571428548  47.8992377765384 0  48.2152816508645 0  Z " fill-rule="nonzero" fill="#000000" stroke="none" transform="matrix(1 0 0 1 842 146 )" />
  </g>
</svg>